<svg xmlns="http://www.w3.org/2000/svg" width="1440" height="634" fill="none"><path fill="url(#a)" d="M0 18.227S16.497-1.309 46.91 9.343c46.166 16.168 25.597 64.95 25.597 64.95s10.368-8.891 23.973 0c13.605 8.89 10.691 38.525 10.691 38.525s22.844-52.564 104.492-41.1c81.648 11.464 54.916 90.134 54.916 90.134a28.89 28.89 0 0 1 24.301-3.604c14.095 4.123 13.248 23.325 13.248 23.325s13.594-36.275 54.852-26.78c41.259 9.495 33.984 55.673 33.984 55.673s8.767-16.035 31.842-15.062c23.074.973 27.93 18.73 27.93 18.73s.086-26.008 15.183-37.668 24.768 2.683 24.768 2.683-6.007-46.662 54.513-65.496c60.52-18.834 73.532 32.82 73.532 32.82s8.197-20.026 30.689-15.391c22.493 4.635 23.766 33.626 23.766 33.626s30.413-81.33 105.581-72.03c75.168 9.298 76.763 71.149 76.763 71.149s16.837-38.002 41.893-29.031c25.056 8.971 26.715 34.812 26.715 34.812s11.295-12.667 35.049-5.648c23.755 7.019 26.652 48.562 26.652 48.562s12.142-24.442 36.44-25.387c24.3-.944 33.05 19.203 33.05 19.203s-4.86-32.031 23.82-50.865c28.67-18.834 59.29 6.454 59.29 6.454s-6.34-19.104 8.26-28.996c14.6-9.893 26.24 8.919 26.24 8.919s-9.55-57.004 26.57-79.212c36.12-22.208 60.43 15.8 60.43 15.8s7.42-17.602 29.45-17.925c22.03-.322 34.67 39.517 34.67 39.517s-.32-45.343 31.43-65.427c31.75-20.084 63.5 0 63.5 0S1418.83 8.048 1440 .274v242.131H0V18.227Z" opacity=".3"/><path fill="#4AC0FF" d="M1440 242.406H0V634h1440V242.406Z"/><path fill="#fff" d="M1440 313.649c-350.98-35.784-960.48-5.803-1235.86-2.051-62.576.854-138.752 3.618-204.14 8.963v83.635c230.291 50.57 292.101 63.407 187.851 106.931-110.811 46.257 257.858 82.589 571.835 48.188 313.974-34.402 382.914-44.073 530.454-80.436 47.91-11.811 112.71-20.699 149.86-16.953V313.649Z" opacity=".2" style="mix-blend-mode:overlay"/><path fill="#ADF5FF" d="M352.644 325.198c-48.712 5.136-61.574 19.623-12.407 29.435 49.168 9.811 40.124 13.64-27.383 25.334-63.222 10.975-153.982 27.235-75.871 46.208 78.112 18.972 229.381 18.425 334.167 19.905 102.58 1.451 170.847 35.612 308.396 25.657 137.544-9.956 244.254-57.09 363.284-76.12 135.8-21.701 116.65-32.589-16.61-56.818-133.27-24.23-784.618-22.98-873.576-13.601Z"/><path fill="#ADF5FF" d="M446.537 452.505c43.961-.535 111.687-.132 131.686 2.401 19.998 2.534-4.799 1.998-35.332 1.728-30.534-.271-81.378-.403-108.755-.576-27.377-.173-23.011-3.121 12.401-3.553Zm283.428 24.88c51.616 4.802 118.564 11.015 186.118 2.131 67.553-8.885 18.846 2.136-72.179 12.442-91.025 10.307-152.127-18.125-113.939-14.573Zm507.985-70.194c-29.34 3.196-66.78 13.013-108 27.189-33.34 11.464-25.87 15.46 11.99 9.598 37.87-5.861 32.54-14.395 54.94-23.193 22.4-8.798 70.4-16.795 41.07-13.594Zm-88.22 33.522c-28.17 6.196-2.12-8.907 16.63-14.394 27.11-8.01 11.56 8.205-16.63 14.394Zm-83.61 7.883c-16.49 4.123-20.62 9.598 0 5.689 20.62-3.91 35.56-14.574 0-5.689Z"/><path fill="#E4BE3D" d="M354.431 324.571c30.528-10.56 174.775-72.285 367.28-68.203 192.505 4.083 217.596 30.327 334.849 43.76 117.26 13.434 264.78 50.319 226.27 73.039-38.52 22.721-183.92 39.263-336.813 72.118-145.555 31.277-240.658-3.052-415.67-3.921-175.012-.87-338.654-18.587-261.32-44.768 70.762-23.958 130.965-25.951 130.965-33.649s-115.033-14.343-45.561-38.376Z"/><path fill="#FBC100" d="M1056.56 300.105c-117.255-13.41-142.34-39.654-334.851-43.76-132.814-2.815-242.657 25.692-308.033 47.106 122.043-16.566 235.071-26.705 456.007-9.898 247.177 18.805 398.017 66.072 364.037 96.278 22.28-5.401 39.22-10.831 49.1-16.664 38.52-22.72-109.01-59.652-226.26-73.062Z"/><path fill="#E6B000" d="M1227.13 332.862c19.01 8.453 35.77 17.769 43.61 24.863 15.73 14.245-50.31 37.202-164.08 50.353-113.773 13.151-145.067 40.518-219.734 43.362-74.667 2.845-209.503-7.732-272.172-11.464-62.669-3.731-61.056 1.728-133.056-7.727-72-9.454-196.174-10.663-216.973-15.817-20.8-5.153-12.621-14.573 22.757-24.701s82.368-17.849 104.349-22.392c21.98-4.543 17.066-6.668 0-13.595-17.067-6.927-18.133-6.667-39.998-9.863-8.496-1.244-14.262-2.188-17.89-3.581 10.753 10.467 66.055 15.292 66.055 20.67 0 7.699-60.203 9.691-130.965 33.649-77.339 26.182 86.308 43.916 261.314 44.768 175.006.852 270.144 35.198 415.67 3.921 152.893-32.854 298.303-49.374 336.813-72.117 19.38-11.453-8.39-26.51-55.7-40.329Z"/><path fill="#fff" d="M678.872 436.504c30.666.346 66.614 7.111 149.956 7.819 83.341.709 41.385-12.437-29.376-20.97-70.762-8.533-89.447 0-155.123 1.422-65.675 1.423-28.805 11.027 34.543 11.729Zm287.612-23.181c-29.78 5.504-48.799 20.521-2.667 14.395 46.133-6.127 46.133-14.666 94.133-22.393 47.99-7.727-2.14-8.55-91.466 7.998Z" opacity=".3" style="mix-blend-mode:overlay"/><path fill="#79AB36" d="M445.933 312.83c-33.126 10.468-74.961 19.537-14.002 20.994 60.958 1.456 66.067 1.151 42.877 7.871-23.19 6.719-28.161 10.681-32.832 11.89-4.671 1.209 205.056 21.304 247.104 19.127 42.048-2.176 117.631 7.578 192.447-9.748 74.817-17.325 89.689-17.429 158.823-19.784 69.13-2.355 136.56-4.399 63.58-25.392s-115.503-36.154-217.006-45.487c-101.502-9.334-362.09 15.598-440.991 40.529Z"/><path fill="#000" d="M438.093 320.155c-24.135 5.182-34.935 7.865-.801 8.798 34.134.932 59.069 2.648 72.576 6.264 13.507 3.616 15.644 4.607 43.021 6.754 27.378 2.148 96.192 1.664 144.352 8.027 48.159 6.362 48.176 8.78 91.584 7.306 43.407-1.474 51.909-21.73 73.595-28.127 21.687-6.397 29.952-8.061 80.064-7.261 50.112.801 116.266-1.358 72.796-15.223-43.46-13.865-577.187 13.462-577.187 13.462Z" opacity=".3" style="mix-blend-mode:overlay"/><path fill="#ADF5FF" d="M715.446 353.901c-34.128-6.558-166.257-16.617-204.763-14.872-38.505 1.744-85.409 24.333-114.819 21.304 2.592.892 4.129 1.768 4.129 2.66 0 2.344-5.592 4.157-15.321 6.219 19.486-2.488 87.926-9.893 74.505 1.186-13.42 11.078-15.454 22.455 58.919 23.906 74.374 1.451 57.756-4.082 130.822-15.016 73.065-10.934 100.65-18.828 66.528-25.387Z"/><path fill="#4AC0FF" d="M443.957 357.725c-24.992 4.813-36.328 6.057-14.797 4.284 24.267-2.004 53.153-6.167 36.801 5.642-16.353 11.81-14.936 18.034 29.508 18.391 44.444.357 67.26-3.645 112.355-5.51 45.095-1.866 67.127-6.91 87.995-10.364 20.869-3.455 33.984-11.113-3.064-16.969-37.049-5.856-102.799-8.717-141.466-11.487-38.667-2.77-40.671.109-67.732 4.031-27.06 3.921-16.133 7.462-39.6 11.982Z"/><path fill="#4AC0FF" d="M595.375 357.305c-15.304-.196-22.752 5.844-2.488 8.182 20.263 2.337 41.069 3.984 46.264 3.719 5.196-.265-12.205 4.129 7.033 4.929 19.238.8 46.57-4.031 41.236-6.483-5.334-2.453-30.851-7.042-24.895-7.941 5.956-.898 26.202-4.243-.916-7.237-27.118-2.994-58.677 4.928-66.234 4.831Z"/><path fill="#87716E" d="M435.456 325.912c2.713.697 61.108 3.645 65.774 3.933 4.665.288 26.836 6.126 33.252 6.708 6.417.581 51.921-2.914 59.507-1.728 7.586 1.186 73.791 11.666 81.665 11.954 7.874.288 61.839 7.876 67.392 7.876 5.553 0 76.13-8.458 81.959-11.371 5.829-2.914 25.085-20.729 27.13-21.88 2.045-1.152 76.13-8.165 79.626-8.165 3.496 0 23.04 5.245 26.104 4.808 3.065-.438 50.755-7.871 52.065-9.622 1.31-1.75-29.313-42.861-31.939-45.487-2.627-2.626-34.123-27.995-38.938-29.74-4.815-1.744-42.877-1.312-45.504 0-2.626 1.313-8.755 4.808-9.337 4.808-.582 0-16.917-94.469-23.04-101.465-6.123-6.996-52.502-64.293-57.755-68.669-5.254-4.376-63.879-13.117-67.392-12.241-3.514.875-27.568 33.672-29.319 34.11-1.751.437-4.228-32.82-6.267-36.592-2.039-3.771-27.417-13.41-33.252-16.33-5.835-2.919-23.916-20.728-26.254-20.993-2.339-.264-86.642 44.025-90.726 49.87-4.084 5.844-7.586 57.717-8.767 64.712-1.181 6.996-7.586 37.323-6.416 40.237 1.169 2.913 8.749 33.827 9.331 38.491.582 4.664 2.189 43.76 1.728 45.044-.461 1.284-5.253-10.364-6.417-14.135-1.163-3.772-.294-28.283-3.208-35.573-2.915-7.289-16.629-31.49-18.962-32.952-2.333-1.463-21.888-.288-24.192.576-2.304.863-28.581 27.407-30.044 30.902-1.463 3.495-7.269 65.911-7.851 69.406-.582 3.495-12.833 27.995-13.709 30.908-.875 2.914-8.012 22.145-6.244 22.6Z"/><path fill="#000" d="M977.951 262.932c-2.621-2.625-34.122-27.994-38.938-29.739-2.684-.979-15.724-1.273-27.181-1.117 9.337 3.725 25.43 10.738 25.43 10.738s22.666 40.795 16.629 45.92c-6.036 5.124-30.625 15.339-38.05 17.066-7.425 1.727-59.063 6.121-63.873 5.683-4.809-.438-42.151-26.532-42.151-26.532s37.63-18.955 39.168-20.792c1.537-1.837 11.007-12.155 11.007-12.155s-9.043 7.289-11.082 8.453c-2.039 1.163-39.088 13.997-42.002 14.578-2.915.582-57.462 2.92-57.756 4.083-.294 1.163 6.567 13.56 5.691 17.492-.875 3.933-15.316 45.05-16.629 45.05-1.313 0-13.121-6.558-15.644-10.059-2.523-3.501-19.354-25.801-20.229-27.989-.876-2.188-10.72-33.678-10.72-35.428 0-1.751 1.532-22.306-.219-20.118-1.751 2.188-15.315 30.614-16.629 34.547-1.313 3.933-38.937 51.17-41.126 51.608-2.189.438-29.75-11.666-31.208-13.416-1.457-1.75-12.833-25.657-11.376-28.283 1.458-2.625 21.312-36.735 24.503-40.524 3.191-3.788 37.337-31.49 35.586-31.49-1.751 0-45.211 31.197-46.962 33.528-1.751 2.332-19.543 47.526-20.736 47.82-1.192.293 1.152-25.076 1.152-26.245 0-1.169 11.083-51.314 14.585-55.978 3.502-4.664 44.352-25.951 49-27.701 4.648-1.751 40.257-20.118 42.589-20.118 2.333 0 66.5 24.759 69.42 25.369 2.92.61 65.042 2.332 68.325 3.645 3.283 1.313 55.636 37.173 55.636 37.173-.576 0-16.917-94.47-23.04-101.466-4.562-5.182-31.415-38.273-47.013-56.652-4.309 5.914-10.887 14.263-14.239 15.103-5.253 1.313-58.631 3.933-61.695 5.246-3.065 1.312-45.936 54.89-45.936 53.796 0-1.094 6.123-38.924 7.217-41.549 1.094-2.626 20.016-38.123 23.074-41.947-7.286 9.075-14.901 18.967-15.857 19.203-1.728.438-4.228-32.82-6.267-36.591-2.039-3.772-27.417-13.41-33.252-16.33-5.835-2.92-23.916-20.728-26.254-20.993a.576.576 0 0 0-.196 0c3.727 5.09 10.65 14.792 10.114 15.863-.725 1.457-17.936 12.091-18.668 14.435-.731 2.343-6.998 45.775-6.998 48.982 0 3.207 5.247 54.234 4.666 56.128-.582 1.895-24.066 30.177-24.192 29.596-.127-.582 4.521-23.325 4.815-24.344.294-1.02-.438-18.812-.876-18.812-.437 0-7.879 7.002-8.605 8.603-.726 1.6-9.625 33.096-10.944 35.572-1.319 2.476-11.301 17.205-11.739 18.517-.438 1.313-3.502 55.322-4.815 61.034-1.314 5.712-18.594 38.486-19.25 38.048-.657-.437-6.78-31.49-6.78-34.115 0-2.626 5.979-55.616 5.104-57.654-.876-2.038-16.848-34.927-17.499-37.035 1.152 2.919 8.749 33.828 9.331 38.492.582 4.664 2.189 43.76 1.728 45.044-.461 1.284-5.253-10.365-6.417-14.136-1.163-3.771-.293-28.283-3.208-35.572-2.915-7.29-16.629-31.49-18.962-32.953-1.665-1.036-12.096-.742-18.795-.167 5.501 2.148 13.098 5.298 13.824 6.582 1.152 2.044 14.296 55.69 14.296 55.69s-3.208 16.042-5.253 22.554c-2.044 6.512-8.53 46.771-9.843 48.303-1.152 1.364-31.243 19.277-40.971 23.728 14.4.789 28.224 1.503 30.395 1.635 4.672.294 26.836 6.127 33.253 6.708 6.416.582 51.92-2.913 59.506-1.727 7.586 1.186 73.792 11.665 81.665 11.953 7.874.288 61.84 7.877 67.393 7.877 5.552 0 76.129-8.458 81.959-11.372 5.829-2.913 25.084-20.728 27.129-21.88 2.045-1.152 76.13-8.165 79.626-8.165 3.497 0 23.04 5.246 26.105 4.808 3.064-.437 50.753-7.871 52.063-9.621 1.31-1.751-29.283-42.868-31.909-45.488Z" opacity=".3" style="mix-blend-mode:overlay"/><path fill="#4AC0FF" d="M717.864 76.4c-.259.328-18.38 29.48-21.802 41.923-3.421 12.443-2.949 51.867-13.397 56.928-10.449 5.062-68.291 38.889-76.228 50.555-7.938 11.665-12.177 46.138-16.278 61.177-4.101 15.04-5.973 60.763-5.973 60.763h-37.342s23.414-68.979 27.849-85.078c4.436-16.099 9.792-39.2 18.91-46.898 9.119-7.699 75.854-38.498 82.852-44.561 6.999-6.063 8.871-48.061 12.137-60.665 3.265-12.604 15.5-34.144 15.5-34.144h13.772Z"/><path fill="#917571" d="M588.333 361.467c1.411-1.727 11.52-16.243 13.674-19.807s14.866-3.57 18.034-4.359c3.168-.788 12.488-4.951 13.249-4.951.76 0 14.866 3.961 16.254 4.554 1.388.593 12.482 16.047 14.072 17.038 1.59.99-16.255 11.688-23.386 13.272-7.131 1.583-30.919-1.584-36.069-2.177-5.149-.593-16.951-2.182-15.828-3.57Z"/><path fill="#000" d="M588.82 362.227c2.304 1.152 11.1 2.344 15.368 2.839 5.149.576 28.932 3.76 36.069 2.176 7.137-1.583 24.97-12.281 23.386-13.271-1.584-.991-12.672-16.445-14.072-17.038-1.4-.593-15.46-4.555-16.255-4.555a4.468 4.468 0 0 0-.921.271c3.456 1.894 7.373 4.411 8.784 5.407 2.246 1.583-1.319 14.262-1.728 15.978-.409 1.716-13.876 7.134-16.249 7.664-2.373.529-7.667-2.246-11.52-2.114-3.209.081-14.371 2.068-22.862 2.643Z" opacity=".3" style="mix-blend-mode:overlay"/><path fill="#917571" d="M644.39 370.864c.703-.541 5.876-7.733 7.367-8.441 1.492-.708 10.731-4.808 11.912-4.606 1.181.201 10.944 3.541 11.676 4.111.731.57 3.686 7.226 3.525 7.744-.162.519-12.096 3.536-14.366 3.541-2.269.006-21.22-1.508-20.114-2.349Z"/><path fill="#000" d="M646.188 371.48c4.636.807 16.56 1.728 18.316 1.728 2.252 0 14.204-3.023 14.366-3.541.161-.518-2.765-7.169-3.525-7.745-.496-.368-4.747-1.9-8.007-2.988.968.61 2.8 3.098 2.598 3.593-.202.495-4.211 8.268-5.103 8.637-.743.345-14.262.328-18.645.316Z" opacity=".3" style="mix-blend-mode:overlay"/><path fill="#84BD3B" d="M817.699 379.323c50.314-11.672 77.956-35.256 118.08-40.496 40.124-5.239 81.691 14.222 139.111 18.961 57.41 4.739-22.87 17.383-96.631 36.724-73.757 19.341-202.919-5.366-160.56-15.189Z"/><path fill="#000" d="M1074.91 357.788c-53.41-4.405-93.093-21.54-130.683-19.698 49.334 4.146 133.233 27.638 83.323 35.44-49.535 7.721-61.856 23.7-95.073 27.603 16.22-.921 31.985-2.994 45.803-6.621 73.76-19.341 154.05-31.985 96.63-36.724Z" opacity=".3" style="mix-blend-mode:overlay"/><path fill="#fff" d="M463.284 203.01c-1.457 3.501-7.292 65.899-7.874 69.394-.518 3.104-10.2 22.698-13 29.135 1.152-2.602 25.546-27.96 26.945-31.242 1.4-3.282 22.954-63.158 24.584-65.024 1.63-1.865-.23 26.129 0 27.062.231.933 12.367-38.238 13.772-44.094 1.406-5.856-11.52-14.538-14.4-16.122-2.315.864-28.564 27.396-30.027 30.891Zm86.924-137.314c-4.083 5.827-7.585 57.728-8.749 64.724-.864 4.687 4.141 49.668 5.386 51.533 1.244 1.866 11.52 10.578 12.758 10.578 1.238 0 30.528-55.063 31.743-57.579 1.216-2.517 8.404-33.598 9.648-35.469 1.245-1.871 5.599 14.003 6.532 14.003.933 0 16.652-62.22 19.008-67.12 2.356-4.9 12.137-12.362 12.137-14.7 0-2.337 2.269-15.863 2.269-15.863-2.356-.27-86.648 44.048-90.732 49.893Zm80.033 144.707c2.425-1.727 40.729-28.11 42.243-28.79 1.515-.679 27.43-4.197 29.296-4.197 1.866 0 40.959 14.193 41.351 14.349.392.155-39.836.852-46.604.777-6.768-.075-29.877 13.243-31.507 14.619-1.631 1.376-21.007 1.152-22.643 1.866-1.636.714-18.668 20.533-19.837 20.999-1.17.466-14.239 1.151-14.239 0 0-1.152 19.492-17.855 21.94-19.623Zm110.127 23.798c2.759.576 65.393 7.485 69.747 7.485 4.355 0 19.585-36.73 18.674-37.651-.91-.921-16.496-2.948-18.362-2.712-1.867.236-37.809 18.644-41.311 20.153-3.502 1.508-41.311 3.627-42.711 3.863-1.399.236 11.664 8.378 13.963 8.862Zm60.484-167.566c-12.522-4.607-61.632-11.81-64.846-11.01-1.647.41-7.839 7.877-14.118 15.72-4.256 8.89-14.25 29.739-15.793 32.819-.548 1.106-1.475 13.376-.853 12.91.622-.467 15.552-22.088 17.28-23.642 1.728-1.555 27.976-18.201 32.175-19.577 3.456-1.157 34.918-5.315 46.155-7.22Z" opacity=".2" style="mix-blend-mode:overlay"/><path fill="#ADF5FF" d="M609.409 218.908c-5.063 1.865-3.732-.265-1.595-2.845 2.136-2.579-2.581-1.422-7.022 0-4.441 1.422-2.88-.086-.536-3.023.738-.927.813-1.526.323-1.785a54.436 54.436 0 0 0-6.987 4.515c-5.011 4.237-8.882 13.128-12.096 22.956.472.138 1.152-.253 1.959-1.336 4.268-5.602-1.953 14.217 3.456 6.127 5.408-8.09 8.179-13.145 6.67-5.948-1.51 7.197 2.131 2.395 4.441-.622 1.584-2.073 2.499.225 2.304 3.795 1.768-6.213 3.761-11.516 6.071-14.936 1.468-2.16 4.648-5.079 8.916-8.43-2.025.26-4.008.774-5.904 1.532Zm88.215-110.805c-2.137 3.454-1.152-2.879-1.67-3.933-.519-1.054-2.201 3.334-3.197 4.267-.996.932.662-5.804-.576-4.267-.766.927-1.307.852-1.549.184a64.408 64.408 0 0 0-2.016 6.19c-.882 3.409-1.659 8.965-2.471 15.374.622-1.342 1.728-5.724 2.304-6.91.8-1.601.443 4.664 1.048 3.265.605-1.399 1.267-3.069 1.33.196.064 3.264.801 2.735 2.068-.663 1.106-2.976 1.296 1.659 1.728 4.607a63.722 63.722 0 0 1 1.446-8.113c1.066-3.875 3.56-9.374 6.497-15.12a16.467 16.467 0 0 0-4.942 4.923Z"/><path fill="#000" d="M688.441 159.907c-.087-2.845 0-6.754-1.331-2.223-1.33 4.532-2.667 8.176-2.667 3.558 0-4.617-2.223 3.11-2.223.801 0-1.584.288-6.334-.098-7.186-1.457 7.929-3.26 14.262-5.668 16.352a21.817 21.817 0 0 1-2.58 1.791c.789 0 1.319.225.126 1.255-2.304 2.004-3.513 3.288-1.468 2.303 2.044-.984 4.423-1.692.887.824-3.537 2.516-3.796 2.815.869.887 1.942-.807 2.045-.271 1.51.627 3.029-1.687 5.408-2.948 6.865-3.656 3.871-1.871 6.239-8.47 7.863-16.652-1.02 2.021-2.028 3.058-2.085 1.319Z" opacity=".5" style="mix-blend-mode:overlay"/><path fill="#ADF5FF" d="M539.136 342.15c-9.378 1.727-4.315 5.596 20.194 8.729 9.954 1.272 2.201 1.266-11.664-.202-13.68-1.445-20.125-5.977-14.665-7.727 4.199-1.347 10.167-1.543 6.135-.8Z"/><path fill="#ADF5FF" d="M558.49 348.454c10.794 1.987 25.73 1.958 30.332.622 4.603-1.336-2.557.253-17.13-.576-14.573-.829-24.313-2.09-13.202-.046Zm14.997 3.755c3.456-.041 8.536-.075 11.998-.403 3.462-.328 3.07.737-5 1.272-8.069.536-12.268-.806-6.998-.869Zm-51.707-8.551c-5.132 2.257 8.974 8.349 26.933 10.975 17.96 2.625 31.375 1.554 28 2.263-3.376.708-16.704.443-33.69-2.263-16.987-2.706-25.344-7.917-23.616-10.364.817-1.089 4.394-1.497 2.373-.611Zm35.214 16.157c5.086.156 15.062.202 18.622-.063 3.559-.265 2.304.783-9.314.938-11.618.156-16.312-1.082-9.308-.875Z"/><path fill="#fff" d="M659.818 217.664c-1.913 1.537-38.131 30.119-42.129 35.699-3.997 5.579-17.337 30.925-17.337 34.121 0 3.196 37.526-12.529 45.832-19.456 8.306-6.927 27.032-35.365 29.531-39.672 2.5-4.307 27.838-14.199 28.904-17.118 1.066-2.919-40.257 2.769-44.801 6.426Z" opacity=".2" style="mix-blend-mode:overlay"/><path fill="#87716E" d="M749.15 128.365c-3.156.789-12.534 9.598-13.064 11.464-.529 1.865 24.267-3.737 28.8-4.031 4.534-.293 29.065-1.727 30.131-1.543 1.066.184-21.502-7.105-25.816-7.848-4.315-.743-15.794.898-20.051 1.958Z"/><path fill="#D99873" d="M451.528 223.123s12.096 62.127 8.727 117.783h-4.165s6.63-34.547-5.524-117.783h.962Z"/><path fill="#708C00" d="M451.711 222.455s11.048-4.158 14.74-4.198c3.692-.04 9.596 3.691 9.596 3.691s-7.01.288-11.393.507c-4.384.218-12.943.748-12.943.748v-.748Z"/><path fill="#708C00" d="M471.895 207.714s-9.885 2.81-11.641 3.99c-3.716 2.499-8.848 11.683-8.848 11.683s2.552-13.168 5.726-15.396c4.469-3.138 14.763-.277 14.763-.277Z"/><path fill="#708C00" d="M451.407 223.387c.211-.263.32-.595.305-.933-.034-2.303-.576-8.216-1.653-10.997-1.198-3.069-8.692-6.576-8.692-6.576s3.514 4.912 4.718 7.186c.933 1.762 5.322 11.32 5.322 11.32Z"/><path fill="#708C00" d="M478.346 218.28s-8.79-4.312-13.473-3.65c-3.381.483-9.55 3.834-12.044 6.057-.962.858-1.423 2.723-1.423 2.723 0-.282 10.144-3.898 14.003-4.157 4.032-.293 12.937-.973 12.937-.973Z"/><path fill="#708C00" d="M473.517 236.285s-3.064-8.689-6.71-11.568c-3.047-2.406-11.641-2.539-14.4-2.245-.576.057-.973.915-.973.915a124.512 124.512 0 0 1 11.053 6.242c4.856 3.19 11.03 6.656 11.03 6.656Z"/><path fill="#708C00" d="M422.02 221.833s7.908-6.754 12.902-6.754c4.643 0 12.488 3.829 15.817 6.281 1.486 1.1.668 2.027.668 2.027s-13.311-2.228-15.944-2.366c-2.632-.138-13.443.812-13.443.812Z"/><path fill="#708C00" d="M434.305 237.523s5.639-5.585 8.15-7.877c2.033-1.86 8.957-6.259 8.957-6.259a1.85 1.85 0 0 0-1.728-.708c-2.742.576-8.122 2.252-10.604 3.749-3.819 2.291-4.775 11.095-4.775 11.095Z"/><path fill="#708C00" d="M451.986 222.645s4.084 5.602 5.437 8.573c1.354 2.971 1.757 8.781 1.757 8.781s-4.032-4.255-5.541-7.768c-1.509-3.512-2.69-9.264-2.69-9.264l1.037-.322Z"/><path fill="#BF7C65" d="M969.202 344.706s-.576-66.792 59.958-104.218l-.22-.478s-57.97 27.891-64.456 104.696h4.718Z"/><path fill="#94A812" d="M1056.77 240.672s-9.95-.973-12.24-1.359c-4.81-.811-15.66.973-15.66.973s11.8-6.874 15.99-6.253c5.89.876 11.91 6.639 11.91 6.639Z"/><path fill="#94A812" d="M1029.64 240.356c.34-.15.61-.416.77-.749 1.11-2.251 3.56-8.251 3.89-11.515.36-3.57-5.15-10.71-5.15-10.71s.95 6.512.99 9.322c.02 2.194-.5 13.652-.5 13.652Z"/><path fill="#94A812" d="M1054.03 256.46s-3.71-10.013-7.92-13.001c-3.03-2.159-10.42-4.14-14.07-4.255-1.41-.046-3.17 1.082-3.17 1.082.21-.218 10.94 4.538 14.2 7.232 3.37 2.793 10.96 8.942 10.96 8.942Z"/><path fill="#94A812" d="M1044.74 265.126s1.57-10.018-.58-14.872c-1.81-4.031-10.52-9.213-13.52-10.537-.58-.265-1.5.299-1.5.299s4.66 6.484 7.92 12.357c3.27 5.873 7.68 12.753 7.68 12.753Z"/><path fill="#94A812" d="M1010.43 219.91s11.02 0 14.46 3.287c3.2 3.035 4.79 11.015 4.82 15.547 0 2.038-.47 1.871-.47 1.871s-7.12-10.871-8.81-12.725c-1.69-1.854-10-7.98-10-7.98Z"/><path fill="#94A812" d="M1006.89 235.26s8.56 1.295 12.21 2.004c2.95.575 11.31 3.765 11.31 3.765.1-.342.1-.703.01-1.048a1.933 1.933 0 0 0-.51-.915c-2.3-2.033-7.26-5.637-10.18-6.841-4.5-1.854-12.84 3.035-12.84 3.035Z"/><path fill="#94A812" d="M1038.23 225.466s-2.36 5.343-3.55 7.554c-.96 1.785-4.61 6.581-4.61 6.581a.96.96 0 0 0 1.01.035c1.59-.777 3.98-2.937 5.27-4.462 1.97-2.35 1.88-9.708 1.88-9.708Z"/><path fill="#94A812" d="M1030.33 239.463s2.6 8.539 2.61 12.219c0 3.184-3.46 8.97-3.46 8.97s-.22-6.661-.17-10.364c.06-3.858-.63-10.456-.63-10.456l1.65-.369Z"/><path fill="#BF7C65" d="M993.976 182.846s-26.035 50.387-30.603 161.86h-5.76s7.765-106.026 35.47-162.304l.893.444Z"/><path fill="#708C00" d="M987.266 146.266s2.759 10.595 3.352 14.211c1.152 6.863 3.151 21.908 3.151 21.908s6.209-17.734 3.784-23.285c-2.149-4.894-10.287-12.834-10.287-12.834Z"/><path fill="#708C00" d="M993.423 181.308a1.152 1.152 0 0 1 0-1.572c2.656-3.184 9.707-11.187 13.977-13.882 5.76-3.645 18.09 1.25 18.09 1.25s-11.37 3.454-15.14 5.36c-2.92 1.48-16.927 8.844-16.927 8.844Z"/><path fill="#708C00" d="M969.727 150.521s13.824 2.775 18.172 7.842c3.122 3.657 6.279 13.324 6.665 18.287.149 1.912-1.273 4.607-1.273 4.607.282-.34-6.86-13.946-10.725-17.769-4.009-3.985-12.839-12.967-12.839-12.967Z"/><path fill="#708C00" d="M958.422 166.113s15.056-5.101 22.009-3.23c5.8 1.566 12.378 13.071 14.02 17.165.328.811-.617 2.303-.617 2.303a158.162 158.162 0 0 0-17.401-8.338c-8.329-3.23-18.011-7.9-18.011-7.9Z"/><path fill="#708C00" d="M964.133 187.389s6.37-12.869 10.69-14.021c4.758-1.243 16.82 4.192 19.734 6.789.576.518.576 2.303.576 2.303s-9.216-.374-16.37.42c-4.562.484-14.63 4.509-14.63 4.509Z"/><path fill="#708C00" d="M1026.8 194.016s-5.37-12.437-10.85-15.166c-5.08-2.534-14.01-1.019-20.882.656-2.984.732-2.028 1.613-2.028 1.613s16.83 2.763 19.84 3.932c3.02 1.169 13.92 8.965 13.92 8.965Z"/><path fill="#708C00" d="M1013.7 207.703s-6.79-10.365-9.86-14.614c-2.48-3.455-11.34-11.706-11.34-11.706s1.152-1.646 2.586-1.215c3.773 1.152 11.034 4.417 14.244 7.221 4.92 4.318 4.37 20.314 4.37 20.314Z"/><path fill="#708C00" d="M1010.63 158.433s-6.21 7.301-8.79 10.565c-2.081 2.649-7.536 11.188-7.536 11.188s-.576-.374-.368-1.445c.535-2.879 4.032-12.126 5.979-14.873 2.445-3.449 10.715-5.435 10.715-5.435Zm-16.282 22.254s4.919 5.4 6.132 9.512c1.05 3.558-.42 13.749-.42 13.749s-2.405-7.226-3.563-11.441a113.821 113.821 0 0 0-4.032-11.037l1.883-.783Z"/><path fill="#708C00" d="M993.022 180.03s-7.315 1.929-9.878 4.946c-2.563 3.017-5.011 12.006-5.011 12.006s6.221-5.436 9.216-8.303c3.116-2.954 7.413-6.685 7.413-6.685l-1.74-1.964Z"/><path fill="#D99873" d="M924.337 187.562s16.128 82.913 11.647 157.144h-5.553s8.842-46.063-7.372-157.144h1.278Z"/><path fill="#708C00" d="M923.75 186.445s10.621-11.625 14.976-13.917 13.64-1.417 13.64-1.417-8.156 4.607-13.248 7.486c-5.092 2.879-14.93 8.717-14.93 8.717l-.438-.869Z"/><path fill="#708C00" d="M938.816 156.705s-10.051 9.316-11.422 11.792c-2.88 5.217-3.456 19.243-3.456 19.243s-4.948-17.199-2.523-21.77c3.427-6.421 17.401-9.265 17.401-9.265Z"/><path fill="#708C00" d="M923.95 187.763a1.89 1.89 0 0 0-.202-1.295c-1.44-2.712-5.644-9.426-8.64-12.092-3.289-2.919-14.319-2.55-14.319-2.55s7.148 3.708 9.959 5.683c2.212 1.525 13.202 10.254 13.202 10.254Z"/><path fill="#708C00" d="M952.865 165.308s-13.058.195-18.224 3.817c-3.721 2.62-9.026 10.336-10.651 14.493-.622 1.6-.04 4.099-.04 4.099-.167-.334 9.7-10.773 14.129-13.416 4.597-2.723 14.786-8.993 14.786-8.993Z"/><path fill="#708C00" d="M958.05 189.692s-8.905-8.476-14.976-9.696c-5.075-1.014-15.368 4.03-18.513 6.069-.622.403-.576 1.675-.576 1.675 5.65-.043 11.298.199 16.923.726 7.707.835 17.142 1.226 17.142 1.226Z"/><path fill="#708C00" d="M888.07 203.684s5.311-12.823 11.244-15.846c5.518-2.81 17.17-3.006 22.614-2.102 2.43.403 2.021 2.004 2.021 2.004s-17.176 5.407-20.39 6.84c-3.214 1.434-15.489 9.104-15.489 9.104Z"/><path fill="#708C00" d="M912.169 214.9s3.324-10.048 4.919-14.303c1.296-3.454 6.86-12.857 6.86-12.857a2.462 2.462 0 0 0-1.262-.234 2.463 2.463 0 0 0-1.209.43c-2.914 2.337-8.288 7.594-10.368 10.876-3.127 5.073 1.06 16.088 1.06 16.088Z"/><path fill="#708C00" d="M924.193 186.508s8.248 4.186 11.658 6.909c3.41 2.724 7.408 9.374 7.408 9.374s-7.396-2.608-11.296-5.884c-3.899-3.277-8.807-9.386-8.807-9.386l1.037-1.013Z"/><path fill="#A9BF15" d="M979.304 344.706s3.001-4.606 9.792-6.909c6.791-2.304-9.401-7.434-12.787 6.909h2.995Zm-13.929 0a14.401 14.401 0 0 0-7.131-5.044c-4.942-1.687 6.855-5.447 9.326 5.044h-2.195Z"/><path fill="#A9BF15" d="M984.32 329.137c-3.611 9.212-5.789 9.097-6.036 15.546h-3.854s-2.379-10.635 4.101-20.239c6.901-10.203 9.349-4.439 5.789 4.693Z"/><path fill="#A9BF15" d="M976.32 344.706s2.817-12.782-4.32-23.607c-7.136-10.825-1.065 14.262 0 23.607h4.32Z"/><path fill="#A9BF15" d="M960.6 329.465c-4.994-5.136 2.108-5.234 7.131-1.583 6.462 4.698 4.763 16.824 4.763 16.824h-2.88a39.155 39.155 0 0 0-9.014-15.241Z"/><path fill="#BF7C65" d="M679.549 348.984s.576-66.791-59.967-104.218l.23-.477s57.969 27.868 64.478 104.695h-4.741Z"/><path fill="#94A812" d="M591.977 244.928s9.953-.968 12.234-1.353c4.815-.818 15.667.967 15.667.967s-11.808-6.875-15.99-6.253c-5.892.875-11.911 6.639-11.911 6.639Z"/><path fill="#94A812" d="M619.101 244.611a1.492 1.492 0 0 1-.76-.749c-1.112-2.251-3.56-8.251-3.894-11.516-.363-3.569 5.149-10.709 5.149-10.709s-.956 6.512-.985 9.322c-.028 2.199.49 13.652.49 13.652Z"/><path fill="#94A812" d="M594.719 260.716s3.703-10.013 7.908-13.002c3.036-2.159 10.432-4.139 14.078-4.255 1.405-.046 3.173 1.083 3.173 1.083-.213-.219-10.944 4.537-14.198 7.232a2565.81 2565.81 0 0 1-10.961 8.942Z"/><path fill="#94A812" d="M604.012 269.381s-1.572-10.019.576-14.872c1.809-4.031 10.524-9.213 13.53-10.537.576-.265 1.486.299 1.486.299s-4.654 6.483-7.92 12.356c-3.266 5.874-7.672 12.754-7.672 12.754Z"/><path fill="#94A812" d="M638.321 224.165s-11.03 0-14.469 3.287c-3.196 3.035-4.792 11.015-4.821 15.547 0 2.044.478 1.871.478 1.871s7.114-10.865 8.802-12.725c1.687-1.86 10.01-7.98 10.01-7.98Z"/><path fill="#94A812" d="M641.853 239.515s-8.559 1.296-12.206 2.004c-2.954.576-11.306 3.766-11.306 3.766a2.007 2.007 0 0 1 .495-1.964c2.304-2.032 7.258-5.637 10.184-6.84 4.498-1.854 12.833 3.034 12.833 3.034Z"/><path fill="#94A812" d="M610.52 229.721s2.356 5.349 3.548 7.554c.962 1.785 4.608 6.581 4.608 6.581a.966.966 0 0 1-1.013.035c-1.59-.777-3.975-2.931-5.271-4.462-1.964-2.35-1.872-9.708-1.872-9.708Z"/><path fill="#94A812" d="M618.418 243.718s-2.598 8.539-2.609 12.218c0 3.185 3.456 8.971 3.456 8.971s.23-6.662.172-10.364c-.057-3.858.634-10.456.634-10.456l-1.653-.369Z"/><path fill="#D99873" d="M675.648 191.794s16.128 82.914 11.647 157.144h-5.553s8.842-46.063-7.367-157.144h1.273Z"/><path fill="#94A812" d="M675.92 190.924s14.739-5.545 19.664-5.602c4.925-.058 12.799 4.923 12.799 4.923s-9.348.391-15.201.679c-5.852.288-17.28.996-17.28.996l.018-.996Z"/><path fill="#94A812" d="M702.848 171.255s-13.184 3.749-15.552 5.326c-4.953 3.334-11.808 15.587-11.808 15.587s3.41-17.567 7.644-20.538c5.979-4.186 19.716-.375 19.716-.375Z"/><path fill="#94A812" d="M675.503 192.168c.284-.351.431-.793.415-1.244-.052-3.069-.749-10.94-2.206-14.671-1.601-4.094-11.595-8.769-11.595-8.769s4.683 6.547 6.296 9.581c1.244 2.355 7.09 15.103 7.09 15.103Z"/><path fill="#94A812" d="M711.446 185.322s-11.721-5.758-17.971-4.866c-4.504.639-12.735 5.113-16.064 8.061-1.285 1.152-1.907 3.634-1.907 3.634 0-.375 13.542-5.183 18.691-5.545 5.34-.34 17.251-1.284 17.251-1.284Z"/><path fill="#94A812" d="M705.022 209.378s-4.084-11.59-8.951-15.437c-4.032-3.207-15.552-3.38-19.25-2.994-.737.081-1.301 1.221-1.301 1.221a167.762 167.762 0 0 1 14.751 8.326c6.503 4.261 14.751 8.884 14.751 8.884Z"/><path fill="#94A812" d="M636.301 190.095s10.552-9.011 17.211-9.011c6.192 0 16.663 5.107 21.104 8.383 1.988 1.463.887 2.701.887 2.701s-17.752-2.971-21.266-3.15c-3.513-.178-17.936 1.077-17.936 1.077Z"/><path fill="#94A812" d="M652.684 211.031s7.522-7.451 10.874-10.514c2.719-2.476 11.947-8.349 11.947-8.349a2.435 2.435 0 0 0-2.304-.944c-3.658.76-10.829 3.005-14.147 4.997-5.086 3.058-6.37 14.81-6.37 14.81Z"/><path fill="#94A812" d="M676.281 191.178s5.455 7.485 7.257 11.441c1.803 3.955 2.345 11.717 2.345 11.717s-5.409-5.677-7.39-10.364c-1.982-4.687-3.595-12.362-3.595-12.362l1.383-.432Z"/><defs><linearGradient id="a" x1="720" x2="720" y1="261.32" y2="160.137" gradientUnits="userSpaceOnUse"><stop stop-color="#33B7FF"/><stop offset="1" stop-color="#fff"/></linearGradient></defs></svg>